<svg width="134" height="57" viewBox="0 0 134 57" fill="none" xmlns="http://www.w3.org/2000/svg">
<path d="M12.8009 26.1643C12.6969 26.1643 12.606 26.2477 12.528 26.4144C12.1988 27.0635 11.8479 27.6513 11.4753 28.1776C11.1114 28.704 10.7432 29.1514 10.3707 29.5198C9.99813 29.8882 9.62991 30.1733 9.26603 30.3751C8.90214 30.5681 8.55992 30.6646 8.23936 30.6646C7.92746 30.6646 7.63722 30.5988 7.36864 30.4672C7.10872 30.3269 6.82281 30.0681 6.51091 29.6909C6.20767 29.3136 5.85679 28.7917 5.45825 28.125C5.06837 27.4583 4.58753 26.5898 4.01571 25.5196C3.92041 25.3441 3.82077 25.2169 3.71681 25.138C3.6215 25.0503 3.53487 25.0064 3.45689 25.0064C3.34426 25.0064 3.24029 25.1292 3.14499 25.3748C3.04969 25.6117 2.96738 25.9494 2.89807 26.388C2.82876 26.8179 2.77244 27.3399 2.72912 27.9539C2.69447 28.5592 2.67714 29.2303 2.67714 29.9672C2.67714 30.4058 2.6988 30.8444 2.74212 31.283C2.7941 31.7217 2.8201 32.1734 2.8201 32.6384C2.8201 32.7963 2.77678 32.9454 2.69014 33.0858C2.6035 33.2174 2.48654 33.3314 2.33925 33.4279C2.20063 33.5332 2.03168 33.6165 1.83241 33.6779C1.64181 33.7393 1.43821 33.77 1.22161 33.77C0.788414 33.77 0.476514 33.5068 0.285908 32.9805C0.0953027 32.4542 0 31.612 0 30.4541C0 28.9891 0.077975 27.66 0.233925 26.467C0.398539 25.2652 0.628132 24.2388 0.922704 23.3879C1.22594 22.5282 1.58116 21.8659 1.98836 21.4009C2.40423 20.9272 2.86775 20.6904 3.37892 20.6904C3.82944 20.6904 4.2583 20.9535 4.6655 21.4799C5.08137 21.9975 5.52756 22.8396 6.00407 24.0063C6.19468 24.48 6.39828 24.9231 6.61488 25.3354C6.84014 25.7477 7.06107 26.1073 7.27766 26.4144C7.50293 26.7126 7.71952 26.9495 7.92746 27.1249C8.13539 27.2916 8.32166 27.3749 8.48628 27.3749C8.65089 27.3749 8.80684 27.3399 8.95413 27.2697C9.11008 27.1907 9.28335 27.0284 9.47396 26.7828C9.67323 26.5284 9.90282 26.16 10.1627 25.6775C10.4313 25.195 10.7605 24.5502 11.1504 23.7432C11.3584 23.3221 11.5446 22.9712 11.7092 22.6905C11.8739 22.4098 12.0385 22.1861 12.2031 22.0194C12.3677 21.8439 12.541 21.7211 12.7229 21.651C12.9049 21.572 13.1085 21.5325 13.3337 21.5325C13.6023 21.5325 13.8666 21.6773 14.1265 21.9668C14.3864 22.2562 14.6376 22.6422 14.8802 23.1247C15.1315 23.6072 15.3741 24.1686 15.608 24.809C15.8419 25.4494 16.0672 26.1205 16.2838 26.8223C16.509 27.5241 16.7256 28.239 16.9336 28.9671C17.1502 29.6865 17.3581 30.3707 17.5574 31.0199C17.6093 31.2129 17.644 31.3488 17.6613 31.4278C17.6873 31.498 17.7003 31.5857 17.7003 31.691C17.7003 31.8401 17.6527 31.9892 17.5574 32.1384C17.4707 32.2787 17.3538 32.4059 17.2065 32.52C17.0592 32.634 16.8902 32.7261 16.6996 32.7963C16.5177 32.8665 16.3358 32.9016 16.1538 32.9016C15.9112 32.9016 15.7206 32.8752 15.582 32.8226C15.452 32.7612 15.3481 32.6559 15.2701 32.5068C15.2268 32.4278 15.1531 32.2173 15.0492 31.8752C14.9452 31.5331 14.8196 31.1295 14.6723 30.6646C14.5337 30.1909 14.3777 29.6909 14.2044 29.1645C14.0398 28.6382 13.8709 28.1557 13.6976 27.7171C13.533 27.2697 13.3727 26.9012 13.2168 26.6117C13.0608 26.3135 12.9222 26.1643 12.8009 26.1643Z" fill="#34717B"/>
<path d="M18.844 28.9671C18.844 28.818 18.8613 28.6513 18.8959 28.4671C18.9306 28.2829 18.9479 28.0811 18.9479 27.8618C18.9479 27.7127 18.8829 27.5986 18.753 27.5197C18.6317 27.4407 18.4931 27.353 18.3371 27.2565C18.1812 27.16 18.0382 27.0372 17.9083 26.8881C17.787 26.7389 17.7263 26.524 17.7263 26.2433C17.7263 26.0415 17.7783 25.8398 17.8823 25.638C17.9949 25.4362 18.1552 25.252 18.3631 25.0853C18.8743 24.6994 19.4028 24.3528 19.9486 24.0458C20.5031 23.7388 21.0532 23.48 21.5991 23.2695C22.1536 23.0589 22.6994 22.8966 23.2365 22.7826C23.7737 22.6685 24.2892 22.6115 24.783 22.6115C25.6148 22.6115 26.3945 22.7694 27.1223 23.0852C27.8587 23.3923 28.4955 23.8177 29.0327 24.3616C29.5785 24.8967 30.0074 25.5284 30.3193 26.2565C30.6398 26.9758 30.8001 27.7478 30.8001 28.5724C30.8001 29.3794 30.6312 30.147 30.2933 30.8751C29.9641 31.5945 29.5179 32.2261 28.9547 32.77C28.3916 33.3139 27.7288 33.7437 26.9663 34.0595C26.2126 34.3841 25.4155 34.5464 24.5751 34.5464C23.752 34.5464 22.9896 34.406 22.2878 34.1253C21.5861 33.8446 20.9796 33.4586 20.4684 32.9673C19.9573 32.4673 19.5587 31.8796 19.2728 31.2041C18.9869 30.5198 18.844 29.7742 18.844 28.9671ZM24.861 32.1778C25.2249 32.1778 25.6018 32.1033 25.9917 31.9541C26.3815 31.805 26.7368 31.5901 27.0573 31.3094C27.3865 31.0199 27.6551 30.669 27.8631 30.2567C28.0797 29.8444 28.188 29.3794 28.188 28.8619C28.188 28.3355 28.0927 27.8443 27.902 27.3881C27.7114 26.9319 27.4472 26.5372 27.1093 26.2038C26.7801 25.8617 26.3859 25.5941 25.9267 25.4012C25.4762 25.2082 24.9866 25.1117 24.4582 25.1117C23.4965 25.1117 22.76 25.3661 22.2489 25.8749C21.7377 26.3749 21.4821 27.1469 21.4821 28.1908C21.4821 28.761 21.5644 29.2917 21.729 29.783C21.9023 30.2654 22.1406 30.6865 22.4438 31.0462C22.747 31.3971 23.1023 31.6734 23.5095 31.8752C23.9253 32.0769 24.3758 32.1778 24.861 32.1778Z" fill="#34717B"/>
<path d="M32.7235 22.7168C32.7235 22.5852 32.7798 22.458 32.8924 22.3352C33.0051 22.2036 33.1524 22.0896 33.3343 21.9931C33.5162 21.8878 33.7198 21.8045 33.9451 21.7431C34.179 21.6729 34.413 21.6378 34.6469 21.6378C34.7768 21.6378 34.8851 21.6729 34.9718 21.7431C35.0671 21.8132 35.1494 21.9492 35.2187 22.151C35.288 22.344 35.3487 22.6203 35.4006 22.98C35.4613 23.3309 35.5176 23.7914 35.5696 24.3616C35.6042 24.5371 35.6346 24.673 35.6606 24.7695C35.6952 24.8573 35.7385 24.9011 35.7905 24.9011C35.8685 24.9011 35.9465 24.7652 36.0244 24.4932C36.6569 22.6422 37.5709 21.7167 38.7666 21.7167C39.321 21.7167 39.8236 21.8922 40.2741 22.2431C40.7333 22.594 41.1578 23.1686 41.5477 23.9669C41.9462 24.7564 42.3231 25.8003 42.6783 27.0986C43.0335 28.3882 43.3887 29.9803 43.744 31.8752C43.7613 31.9717 43.7743 32.0594 43.783 32.1384C43.7916 32.2173 43.7959 32.2919 43.7959 32.362C43.7959 32.5638 43.7483 32.7393 43.653 32.8884C43.5664 33.0288 43.4494 33.1472 43.3021 33.2437C43.1548 33.3314 42.9902 33.3972 42.8083 33.4411C42.6263 33.4937 42.4444 33.52 42.2624 33.52C41.8986 33.52 41.6343 33.4805 41.4697 33.4016C41.3137 33.3226 41.2141 33.1735 41.1708 32.9542C40.9195 31.6208 40.6726 30.4365 40.43 29.4014C40.1961 28.3662 39.9622 27.4978 39.7283 26.796C39.503 26.0854 39.2777 25.5459 39.0525 25.1775C38.8272 24.809 38.6019 24.6248 38.3767 24.6248C38.1514 24.6248 37.9392 24.7695 37.7399 25.059C37.5493 25.3397 37.363 25.7827 37.1811 26.388C36.9991 26.9933 36.8215 27.7609 36.6482 28.6908C36.4836 29.6207 36.3233 30.7304 36.1674 32.0199C36.1241 32.3708 35.9508 32.6515 35.6476 32.8621C35.3443 33.0726 34.9588 33.1779 34.4909 33.1779C34.179 33.1779 33.9408 33.1121 33.7762 32.9805C33.6115 32.8489 33.5206 32.6691 33.5033 32.441C33.4253 30.6163 33.3386 29.1163 33.2433 27.9408C33.1567 26.7565 33.0744 25.8091 32.9964 25.0985C32.9184 24.3792 32.8535 23.844 32.8015 23.4932C32.7495 23.1423 32.7235 22.8835 32.7235 22.7168Z" fill="#34717B"/>
<path d="M48.3965 21.9141C48.977 21.9141 49.5748 21.9931 50.1899 22.151C50.805 22.3001 51.3682 22.4975 51.8794 22.7431C52.3905 22.98 52.8107 23.2475 53.1399 23.5458C53.4692 23.844 53.6338 24.1335 53.6338 24.4143C53.6338 24.5546 53.5731 24.7125 53.4518 24.888C53.3306 25.0546 53.1833 25.2169 53.01 25.3748C52.8367 25.524 52.6461 25.6512 52.4382 25.7564C52.2389 25.8529 52.0613 25.9012 51.9053 25.9012C51.6974 25.9012 51.4635 25.8135 51.2036 25.638C50.9523 25.4626 50.6707 25.2696 50.3588 25.059C50.0556 24.8397 49.722 24.6423 49.3582 24.4669C48.9943 24.2914 48.6001 24.2037 48.1755 24.2037C47.8983 24.2037 47.6687 24.2739 47.4868 24.4143C47.3135 24.5458 47.2268 24.7344 47.2268 24.9801C47.2268 25.1994 47.3308 25.4231 47.5387 25.6512C47.7467 25.8705 48.0196 26.0986 48.3575 26.3354C48.704 26.5723 49.0939 26.8223 49.5271 27.0855C49.9603 27.3486 50.4022 27.6293 50.8527 27.9276C51.3119 28.2259 51.7581 28.5504 52.1913 28.9013C52.6244 29.2522 53.01 29.6338 53.3479 30.0461C53.6944 30.4584 53.9717 30.9102 54.1796 31.4015C54.3875 31.884 54.4915 32.4103 54.4915 32.9805C54.4915 33.4718 54.4049 33.9191 54.2316 34.3227C54.0583 34.7262 53.8114 35.0727 53.4908 35.3622C53.1703 35.6517 52.7891 35.8754 52.3472 36.0333C51.9053 36.1912 51.4202 36.2701 50.8917 36.2701C50.2245 36.2701 49.6094 36.1649 49.0463 35.9543C48.4831 35.7526 47.9979 35.4719 47.5907 35.1122C47.1835 34.7525 46.863 34.3227 46.629 33.8227C46.4038 33.3226 46.2911 32.7743 46.2911 32.1778C46.2911 31.4059 46.4254 30.8444 46.694 30.4935C46.9713 30.1426 47.4045 29.9672 47.9936 29.9672C48.3575 29.9672 48.6477 30.0374 48.8643 30.1777C49.0809 30.3181 49.1892 30.4891 49.1892 30.6909C49.1892 30.7962 49.1719 30.9058 49.1372 31.0199C49.1026 31.1251 49.0636 31.2392 49.0203 31.362C48.9856 31.476 48.951 31.5989 48.9163 31.7304C48.8903 31.862 48.8773 31.9936 48.8773 32.1252C48.8773 32.3533 48.9293 32.5726 49.0333 32.7831C49.1372 32.9937 49.2759 33.1779 49.4491 33.3358C49.6311 33.5025 49.839 33.634 50.0729 33.7305C50.3069 33.827 50.5538 33.8753 50.8137 33.8753C51.5068 33.8753 51.8534 33.5858 51.8534 33.0068C51.8534 32.5507 51.6758 32.1208 51.3205 31.7173C50.9653 31.305 50.5191 30.9058 49.982 30.5198C49.4448 30.1251 48.8643 29.7303 48.2405 29.3356C47.6254 28.9408 47.0492 28.5285 46.5121 28.0987C45.9749 27.6688 45.5287 27.2127 45.1735 26.7302C44.8183 26.2389 44.6407 25.7082 44.6407 25.138C44.6407 24.6643 44.736 24.23 44.9266 23.8353C45.1259 23.4405 45.3944 23.1028 45.7323 22.8221C46.0702 22.5326 46.4644 22.3089 46.9149 22.151C47.3741 21.9931 47.868 21.9141 48.3965 21.9141Z" fill="#34717B"/>
<path d="M56.168 18.1376C56.168 17.6727 56.2979 17.3481 56.5578 17.1639C56.8178 16.9709 57.2466 16.8744 57.8444 16.8744C58.061 16.8744 58.243 16.8963 58.3903 16.9402C58.5462 16.9753 58.6762 17.0454 58.7801 17.1507C58.8928 17.256 58.9794 17.3963 59.0401 17.5718C59.1094 17.7385 59.1657 17.9534 59.209 18.2166C59.313 19.0324 59.4256 19.8745 59.5469 20.743C59.6768 21.6115 59.8111 22.4843 59.9498 23.3616C60.0017 23.7563 60.2053 23.9537 60.5606 23.9537C60.6559 23.9537 60.8118 23.9449 61.0284 23.9274C61.2537 23.9011 61.5179 23.8748 61.8212 23.8484C62.1244 23.8133 62.4493 23.7783 62.7958 23.7432C63.1511 23.7081 63.502 23.6774 63.8485 23.6511C64.2037 23.616 64.5373 23.5897 64.8492 23.5721C65.1698 23.5458 65.4513 23.5326 65.6939 23.5326C65.8845 23.5326 66.0361 23.5721 66.1488 23.6511C66.2614 23.7212 66.348 23.8177 66.4087 23.9405C66.478 24.0546 66.5213 24.1862 66.5387 24.3353C66.5646 24.4757 66.5776 24.6204 66.5776 24.7695C66.5776 24.9011 66.5516 25.0371 66.4997 25.1775C66.4563 25.3178 66.3914 25.445 66.3047 25.5591C66.2267 25.6643 66.1271 25.752 66.0058 25.8222C65.8845 25.8924 65.7459 25.9275 65.59 25.9275C64.8362 25.9275 64.0738 25.9538 63.3027 26.0064C62.5403 26.0503 61.7778 26.1117 61.0154 26.1907C60.6255 26.2433 60.4306 26.4407 60.4306 26.7828C60.4306 26.8091 60.4349 26.8442 60.4436 26.8881C60.4523 26.9232 60.4566 26.9539 60.4566 26.9802C60.5606 27.7434 60.6559 28.4583 60.7425 29.125C60.8378 29.7917 60.9158 30.3883 60.9764 30.9146C61.0457 31.4322 61.0977 31.8664 61.1324 32.2173C61.1757 32.5594 61.1974 32.7875 61.1974 32.9016C61.1974 33.2174 61.167 33.4805 61.1064 33.6911C61.0457 33.9104 60.9461 34.0858 60.8075 34.2174C60.6689 34.3578 60.4826 34.4543 60.2487 34.5069C60.0234 34.5683 59.7375 34.599 59.3909 34.599C59.0617 34.599 58.8191 34.5201 58.6632 34.3622C58.5072 34.2043 58.4206 33.963 58.4033 33.6384C58.3513 32.6033 58.269 31.5638 58.1563 30.5198C58.0437 29.4672 57.9137 28.4189 57.7665 27.3749C57.6885 26.9977 57.4935 26.8091 57.1817 26.8091C57.1557 26.8091 57.1253 26.8135 57.0907 26.8223C57.056 26.8311 57.0257 26.8354 56.9997 26.8354C56.4625 26.9583 55.9557 27.0811 55.4792 27.2039C55.0027 27.3267 54.5565 27.4583 54.1406 27.5986C53.9067 27.6776 53.6988 27.7346 53.5168 27.7697C53.3349 27.796 53.1703 27.8092 53.023 27.8092C52.8237 27.8092 52.6764 27.7215 52.5811 27.546C52.4858 27.3618 52.4382 27.1337 52.4382 26.8618C52.4382 26.7653 52.4468 26.6556 52.4642 26.5328C52.4815 26.4012 52.5161 26.274 52.5681 26.1512C52.6115 26.0196 52.6808 25.9012 52.7761 25.7959C52.8627 25.6819 52.984 25.5898 53.1399 25.5196C53.5038 25.3704 53.989 25.2169 54.5955 25.059C55.202 24.8924 55.8864 24.7388 56.6488 24.5985C56.8221 24.5546 56.9564 24.4844 57.0517 24.3879C57.1557 24.2827 57.2076 24.1292 57.2076 23.9274C57.2076 23.8835 57.2076 23.8397 57.2076 23.7958C57.2076 23.7432 57.199 23.6905 57.1817 23.6379C57.043 22.8308 56.9087 22.0983 56.7788 21.4404C56.6575 20.7737 56.5492 20.2035 56.4539 19.7298C56.3672 19.2561 56.2979 18.8833 56.246 18.6113C56.194 18.3394 56.168 18.1815 56.168 18.1376Z" fill="#34717B"/>
<path d="M72.8676 23.4932C72.5471 23.4932 72.2655 23.5809 72.0229 23.7563C71.7803 23.923 71.5724 24.1599 71.3991 24.4669C71.2258 24.7652 71.0829 25.1204 70.9702 25.5327C70.8576 25.9363 70.7666 26.3793 70.6973 26.8618C70.628 27.3442 70.5804 27.8486 70.5544 28.375C70.5284 28.9013 70.5154 29.4321 70.5154 29.9672C70.5154 30.669 70.5414 31.362 70.5933 32.0462C70.654 32.7217 70.6843 33.3489 70.6843 33.9279C70.6843 34.3051 70.5457 34.599 70.2684 34.8095C69.9912 35.0289 69.597 35.1385 69.0858 35.1385C68.9905 35.1385 68.8822 35.1297 68.7609 35.1122C68.6396 35.0947 68.5227 35.0596 68.41 35.0069C68.3061 34.9543 68.2108 34.8797 68.1241 34.7832C68.0462 34.6955 68.0028 34.5727 67.9942 34.4148C67.9162 33.6428 67.8036 32.8533 67.6563 32.0462C67.509 31.2392 67.3227 30.4365 67.0975 29.6382C66.8809 28.8312 66.6166 28.0329 66.3047 27.2434C66.0015 26.4538 65.6506 25.6819 65.2521 24.9274C65.1827 24.7959 65.1221 24.673 65.0701 24.559C65.0268 24.445 65.0051 24.3353 65.0051 24.23C65.0051 24.0984 65.0615 23.9581 65.1741 23.809C65.2954 23.6511 65.4427 23.5063 65.6159 23.3747C65.7979 23.2431 65.9928 23.1379 66.2008 23.0589C66.4174 22.9712 66.6253 22.9273 66.8246 22.9273C67.1538 22.9273 67.444 23.1598 67.6953 23.6247C67.9465 24.0809 68.1805 24.8134 68.397 25.8222C68.4404 25.9977 68.475 26.1205 68.501 26.1907C68.527 26.2608 68.5617 26.2959 68.605 26.2959C68.7003 26.2959 68.7609 26.1468 68.7869 25.8485C68.8909 25.0152 69.0685 24.3002 69.3198 23.7037C69.571 23.0984 69.8829 22.6028 70.2555 22.2168C70.6367 21.822 71.0699 21.5325 71.555 21.3483C72.0489 21.1641 72.5904 21.072 73.1795 21.072C73.5174 21.072 73.8596 21.1027 74.2062 21.1641C74.5527 21.2255 74.8646 21.3176 75.1419 21.4404C75.4191 21.5632 75.6444 21.7124 75.8177 21.8878C75.991 22.0633 76.0776 22.2606 76.0776 22.4799C76.0776 22.6378 76.0429 22.8265 75.9736 23.0458C75.913 23.2563 75.8307 23.4625 75.7267 23.6642C75.6227 23.8572 75.5014 24.0239 75.3628 24.1642C75.2329 24.2958 75.0986 24.3616 74.9599 24.3616C74.804 24.3616 74.6524 24.3178 74.5051 24.23C74.3578 24.1335 74.1975 24.0327 74.0242 23.9274C73.8596 23.8221 73.682 23.7256 73.4914 23.6379C73.3095 23.5414 73.1015 23.4932 72.8676 23.4932Z" fill="#34717B"/>
<path d="M86.3183 30.4541C86.5696 30.2347 86.8165 30.1251 87.0591 30.1251C87.1977 30.1251 87.3233 30.1602 87.4359 30.2304C87.5486 30.3005 87.6742 30.4102 87.8128 30.5593C87.9428 30.7611 88.0338 30.9278 88.0857 31.0593C88.1464 31.1822 88.1767 31.305 88.1767 31.4278C88.1767 31.691 88.0467 31.941 87.7868 32.1778C87.371 32.5287 86.9204 32.8445 86.4353 33.1252C85.9501 33.3972 85.4432 33.6297 84.9147 33.8227C84.3863 34.0156 83.8404 34.1604 83.2773 34.2569C82.7141 34.3622 82.1553 34.4148 81.6008 34.4148C80.899 34.4148 80.2406 34.3227 79.6255 34.1385C79.0103 33.963 78.4602 33.7086 77.975 33.3753C77.4985 33.0419 77.0956 32.6428 76.7664 32.1778C76.4371 31.7041 76.2032 31.1734 76.0646 30.5856C75.9866 30.34 75.913 30.1821 75.8437 30.1119C75.783 30.033 75.679 29.9935 75.5318 29.9935C75.2112 29.9935 74.9643 29.9145 74.791 29.7566C74.6177 29.5987 74.5311 29.3707 74.5311 29.0724C74.5311 28.9496 74.5397 28.8706 74.5571 28.8355L74.5831 28.5724C74.6264 28.2566 74.7087 28.0285 74.83 27.8881C74.9599 27.7478 75.1592 27.6776 75.4278 27.6776H75.6227C75.9866 27.6776 76.2422 27.5065 76.3895 27.1644C76.6581 26.5591 77.0003 26.0064 77.4162 25.5064C77.832 25.0064 78.2999 24.5809 78.8197 24.23C79.3395 23.8704 79.894 23.594 80.4832 23.401C81.081 23.1993 81.6875 23.0984 82.3026 23.0984C82.9437 23.0984 83.5415 23.1949 84.096 23.3879C84.6592 23.5721 85.1487 23.8309 85.5645 24.1642C85.9804 24.4976 86.3053 24.888 86.5392 25.3354C86.7818 25.7827 86.9031 26.2652 86.9031 26.7828C86.9031 27.1425 86.8338 27.4714 86.6952 27.7697C86.5566 28.068 86.3573 28.3311 86.0974 28.5592C85.8375 28.7785 85.5212 28.9584 85.1487 29.0987C84.7848 29.2391 84.3689 29.3312 83.9011 29.375L79.3915 29.8356C79.2182 29.8356 79.0753 29.8795 78.9627 29.9672C78.8587 30.0549 78.8067 30.1733 78.8067 30.3225C78.8067 30.5505 78.889 30.7699 79.0536 30.9804C79.2269 31.1909 79.4522 31.3795 79.7294 31.5462C80.0153 31.7041 80.3402 31.8313 80.7041 31.9278C81.0767 32.0243 81.4579 32.0726 81.8477 32.0726C82.2203 32.0726 82.6015 32.0375 82.9914 31.9673C83.3899 31.8883 83.7798 31.7787 84.161 31.6383C84.5509 31.498 84.9277 31.3313 85.2916 31.1383C85.6555 30.9365 85.9977 30.7085 86.3183 30.4541ZM83.4202 27.0591C83.5502 27.0328 83.6628 26.9714 83.7581 26.8749C83.8534 26.7696 83.9011 26.6424 83.9011 26.4933C83.9011 26.3617 83.8534 26.2389 83.7581 26.1249C83.6628 26.0108 83.5329 25.91 83.3682 25.8222C83.2036 25.7257 83.013 25.6512 82.7964 25.5985C82.5798 25.5459 82.3502 25.5196 82.1077 25.5196C81.7524 25.5196 81.3885 25.5722 81.016 25.6775C80.6435 25.7827 80.3056 25.9231 80.0023 26.0986C79.6991 26.2652 79.4522 26.4538 79.2616 26.6644C79.071 26.8661 78.9757 27.0679 78.9757 27.2697C78.9757 27.4714 79.097 27.5723 79.3395 27.5723C79.4868 27.5723 79.7251 27.5548 80.0543 27.5197C80.3835 27.4846 80.7474 27.4451 81.146 27.4013C81.5445 27.3486 81.9474 27.2916 82.3546 27.2302C82.7618 27.1688 83.117 27.1118 83.4202 27.0591Z" fill="#34717B"/>
<path d="M104.019 23.7169C104.053 23.7344 104.105 23.7432 104.175 23.7432C104.365 23.7432 104.46 23.616 104.46 23.3616V19.2692C104.46 18.7517 104.573 18.3832 104.798 18.1639C105.032 17.9446 105.418 17.835 105.955 17.835C106.501 17.835 106.886 17.949 107.112 18.1771C107.337 18.4052 107.45 18.7955 107.45 19.3482C107.45 19.5587 107.437 19.8702 107.411 20.2825C107.385 20.686 107.354 21.1465 107.32 21.6641C107.294 22.1817 107.268 22.7387 107.242 23.3353C107.216 23.923 107.203 24.5064 107.203 25.0853C107.203 25.9801 107.263 26.7521 107.385 27.4013C107.506 28.0504 107.679 28.5899 107.904 29.0198C108.13 29.4408 108.398 29.7566 108.71 29.9672C109.022 30.1689 109.373 30.2698 109.763 30.2698C109.979 30.2698 110.174 30.2435 110.348 30.1909C110.53 30.1295 110.742 30.0988 110.984 30.0988C111.158 30.0988 111.301 30.1909 111.413 30.3751C111.535 30.5505 111.595 30.7655 111.595 31.0199C111.595 31.248 111.526 31.4629 111.387 31.6646C111.257 31.8664 111.075 32.0419 110.841 32.191C110.616 32.3401 110.352 32.4585 110.049 32.5463C109.745 32.6252 109.429 32.6647 109.1 32.6647C108.39 32.6647 107.74 32.4454 107.151 32.0068C106.561 31.5594 106.12 30.8795 105.825 29.9672C105.799 29.8268 105.756 29.7566 105.695 29.7566C105.626 29.7566 105.569 29.8268 105.526 29.9672C105.292 30.6076 104.985 31.1865 104.603 31.7041C104.231 32.2129 103.793 32.6515 103.291 33.02C102.797 33.3796 102.251 33.656 101.653 33.849C101.064 34.042 100.44 34.1385 99.782 34.1385C99.0889 34.1385 98.4521 34.02 97.8716 33.7832C97.2998 33.5551 96.8059 33.2349 96.3901 32.8226C95.9742 32.4015 95.6493 31.9103 95.4154 31.3488C95.1815 30.7786 95.0645 30.1646 95.0645 29.5066C95.0645 28.6645 95.2378 27.8706 95.5843 27.1249C95.9309 26.3793 96.3987 25.7301 96.9879 25.1775C97.5857 24.616 98.2788 24.173 99.0672 23.8484C99.8556 23.5239 100.696 23.3616 101.588 23.3616C101.952 23.3616 102.338 23.3923 102.745 23.4537C103.152 23.5063 103.577 23.594 104.019 23.7169ZM100.289 31.7699C100.783 31.7699 101.22 31.6603 101.601 31.4409C101.991 31.2216 102.333 30.9453 102.628 30.612C102.931 30.2698 103.187 29.897 103.395 29.4935C103.603 29.0812 103.772 28.682 103.902 28.296C104.032 27.9101 104.127 27.5635 104.188 27.2565C104.248 26.9495 104.279 26.7302 104.279 26.5986C104.279 26.5021 104.253 26.4187 104.201 26.3486C104.149 26.2696 104.071 26.2082 103.967 26.1643C103.733 26.1029 103.49 26.0503 103.239 26.0064C102.988 25.9538 102.741 25.91 102.498 25.8749C102.256 25.8398 102.022 25.8135 101.796 25.7959C101.58 25.7784 101.38 25.7696 101.199 25.7696C100.679 25.7696 100.207 25.8485 99.782 26.0064C99.3575 26.1643 98.9936 26.388 98.6903 26.6775C98.3958 26.967 98.1662 27.3135 98.0015 27.7171C97.8369 28.1118 97.7546 28.5461 97.7546 29.0198C97.7546 29.4408 97.8153 29.8224 97.9366 30.1646C98.0665 30.4979 98.2398 30.783 98.4564 31.0199C98.6817 31.2567 98.9502 31.4409 99.2621 31.5725C99.574 31.7041 99.9163 31.7699 100.289 31.7699Z" fill="#34717B"/>
<path d="M121.979 30.4541C122.23 30.2347 122.477 30.1251 122.72 30.1251C122.858 30.1251 122.984 30.1602 123.096 30.2304C123.209 30.3005 123.335 30.4102 123.473 30.5593C123.603 30.7611 123.694 30.9278 123.746 31.0593C123.807 31.1822 123.837 31.305 123.837 31.4278C123.837 31.691 123.707 31.941 123.447 32.1778C123.032 32.5287 122.581 32.8445 122.096 33.1252C121.611 33.3972 121.104 33.6297 120.575 33.8227C120.047 34.0156 119.501 34.1604 118.938 34.2569C118.375 34.3622 117.816 34.4148 117.261 34.4148C116.56 34.4148 115.901 34.3227 115.286 34.1385C114.671 33.963 114.121 33.7086 113.636 33.3753C113.159 33.0419 112.756 32.6428 112.427 32.1778C112.098 31.7041 111.864 31.1734 111.725 30.5856C111.647 30.34 111.574 30.1821 111.504 30.1119C111.444 30.033 111.34 29.9935 111.192 29.9935C110.872 29.9935 110.625 29.9145 110.452 29.7566C110.278 29.5987 110.192 29.3707 110.192 29.0724C110.192 28.9496 110.2 28.8706 110.218 28.8355L110.244 28.5724C110.287 28.2566 110.369 28.0285 110.491 27.8881C110.62 27.7478 110.82 27.6776 111.088 27.6776H111.283C111.647 27.6776 111.903 27.5065 112.05 27.1644C112.319 26.5591 112.661 26.0064 113.077 25.5064C113.493 25.0064 113.96 24.5809 114.48 24.23C115 23.8704 115.555 23.594 116.144 23.401C116.742 23.1993 117.348 23.0984 117.963 23.0984C118.604 23.0984 119.202 23.1949 119.757 23.3879C120.32 23.5721 120.809 23.8309 121.225 24.1642C121.641 24.4976 121.966 24.888 122.2 25.3354C122.442 25.7827 122.564 26.2652 122.564 26.7828C122.564 27.1425 122.494 27.4714 122.356 27.7697C122.217 28.068 122.018 28.3311 121.758 28.5592C121.498 28.7785 121.182 28.9584 120.809 29.0987C120.445 29.2391 120.029 29.3312 119.562 29.375L115.052 29.8356C114.879 29.8356 114.736 29.8795 114.623 29.9672C114.519 30.0549 114.467 30.1733 114.467 30.3225C114.467 30.5505 114.55 30.7699 114.714 30.9804C114.887 31.1909 115.113 31.3795 115.39 31.5462C115.676 31.7041 116.001 31.8313 116.365 31.9278C116.737 32.0243 117.118 32.0726 117.508 32.0726C117.881 32.0726 118.262 32.0375 118.652 31.9673C119.05 31.8883 119.44 31.7787 119.822 31.6383C120.211 31.498 120.588 31.3313 120.952 31.1383C121.316 30.9365 121.658 30.7085 121.979 30.4541ZM119.081 27.0591C119.211 27.0328 119.323 26.9714 119.419 26.8749C119.514 26.7696 119.562 26.6424 119.562 26.4933C119.562 26.3617 119.514 26.2389 119.419 26.1249C119.323 26.0108 119.193 25.91 119.029 25.8222C118.864 25.7257 118.674 25.6512 118.457 25.5985C118.24 25.5459 118.011 25.5196 117.768 25.5196C117.413 25.5196 117.049 25.5722 116.677 25.6775C116.304 25.7827 115.966 25.9231 115.663 26.0986C115.36 26.2652 115.113 26.4538 114.922 26.6644C114.732 26.8661 114.636 27.0679 114.636 27.2697C114.636 27.4714 114.758 27.5723 115 27.5723C115.147 27.5723 115.386 27.5548 115.715 27.5197C116.044 27.4846 116.408 27.4451 116.807 27.4013C117.205 27.3486 117.608 27.2916 118.015 27.2302C118.422 27.1688 118.778 27.1118 119.081 27.0591Z" fill="#34717B"/>
<path d="M127.905 21.9141C128.485 21.9141 129.083 21.9931 129.698 22.151C130.314 22.3001 130.877 22.4975 131.388 22.7431C131.899 22.98 132.319 23.2475 132.648 23.5458C132.978 23.844 133.142 24.1335 133.142 24.4143C133.142 24.5546 133.082 24.7125 132.96 24.888C132.839 25.0546 132.692 25.2169 132.518 25.3748C132.345 25.524 132.155 25.6512 131.947 25.7564C131.747 25.8529 131.57 25.9012 131.414 25.9012C131.206 25.9012 130.972 25.8135 130.712 25.638C130.461 25.4626 130.179 25.2696 129.867 25.059C129.564 24.8397 129.231 24.6423 128.867 24.4669C128.503 24.2914 128.109 24.2037 127.684 24.2037C127.407 24.2037 127.177 24.2739 126.995 24.4143C126.822 24.5458 126.735 24.7344 126.735 24.9801C126.735 25.1994 126.839 25.4231 127.047 25.6512C127.255 25.8705 127.528 26.0986 127.866 26.3354C128.213 26.5723 128.602 26.8223 129.036 27.0855C129.469 27.3486 129.911 27.6293 130.361 27.9276C130.82 28.2259 131.267 28.5504 131.7 28.9013C132.133 29.2522 132.518 29.6338 132.856 30.0461C133.203 30.4584 133.48 30.9102 133.688 31.4015C133.896 31.884 134 32.4103 134 32.9805C134 33.4718 133.913 33.9191 133.74 34.3227C133.567 34.7262 133.32 35.0727 132.999 35.3622C132.679 35.6517 132.298 35.8754 131.856 36.0333C131.414 36.1912 130.929 36.2701 130.4 36.2701C129.733 36.2701 129.118 36.1649 128.555 35.9543C127.992 35.7526 127.506 35.4719 127.099 35.1122C126.692 34.7525 126.371 34.3227 126.138 33.8227C125.912 33.3226 125.8 32.7743 125.8 32.1778C125.8 31.4059 125.934 30.8444 126.202 30.4935C126.48 30.1426 126.913 29.9672 127.502 29.9672C127.866 29.9672 128.156 30.0374 128.373 30.1777C128.589 30.3181 128.698 30.4891 128.698 30.6909C128.698 30.7962 128.68 30.9058 128.646 31.0199C128.611 31.1251 128.572 31.2392 128.529 31.362C128.494 31.476 128.459 31.5989 128.425 31.7304C128.399 31.862 128.386 31.9936 128.386 32.1252C128.386 32.3533 128.438 32.5726 128.542 32.7831C128.646 32.9937 128.784 33.1779 128.958 33.3358C129.14 33.5025 129.347 33.634 129.581 33.7305C129.815 33.827 130.062 33.8753 130.322 33.8753C131.015 33.8753 131.362 33.5858 131.362 33.0068C131.362 32.5507 131.184 32.1208 130.829 31.7173C130.474 31.305 130.028 30.9058 129.49 30.5198C128.953 30.1251 128.373 29.7303 127.749 29.3356C127.134 28.9408 126.558 28.5285 126.021 28.0987C125.483 27.6688 125.037 27.2127 124.682 26.7302C124.327 26.2389 124.149 25.7082 124.149 25.138C124.149 24.6643 124.244 24.23 124.435 23.8353C124.634 23.4405 124.903 23.1028 125.241 22.8221C125.579 22.5326 125.973 22.3089 126.423 22.151C126.883 21.9931 127.376 21.9141 127.905 21.9141Z" fill="#34717B"/>
<path d="M54.8394 44.0125C54.7268 44.03 54.6315 44.0432 54.5535 44.0519C54.4755 44.0607 54.4105 44.0651 54.3586 44.0651C54.064 44.0476 53.8561 43.9642 53.7348 43.8151C53.6135 43.6572 53.5528 43.3984 53.5528 43.0387C53.5528 42.3282 53.8907 41.8808 54.5665 41.6966C55.1643 41.5562 55.8054 41.4553 56.4899 41.3939C57.1743 41.3237 57.9367 41.2886 58.7771 41.2886C59.9034 41.2886 61.0211 41.3983 62.1301 41.6176C63.2477 41.8369 64.309 42.1396 65.314 42.5255C66.3277 42.9028 67.2677 43.3545 68.1341 43.8809C69.0005 44.3985 69.75 44.9643 70.3824 45.5783C71.0235 46.1836 71.5217 46.824 71.8769 47.4995C72.2408 48.1662 72.4228 48.8373 72.4228 49.5128C72.4228 50.197 72.1932 50.8506 71.734 51.4734C71.2835 52.0875 70.6727 52.6313 69.9016 53.1051C69.1305 53.5788 68.2381 53.956 67.2244 54.2367C66.2108 54.5174 65.1494 54.6578 64.0405 54.6578C63.1567 54.6578 62.234 54.5744 61.2723 54.4078C60.3106 54.2411 59.2493 53.9735 58.0884 53.6051C57.5512 53.456 57.2826 53.1226 57.2826 52.605C57.2826 52.491 57.3086 52.3857 57.3606 52.2892C57.4126 52.1927 57.4646 52.1006 57.5165 52.0129C57.5772 51.9252 57.6335 51.8418 57.6855 51.7629C57.7375 51.6752 57.7635 51.5874 57.7635 51.4997C57.7635 50.9997 57.7375 50.4646 57.6855 49.8944C57.6422 49.3242 57.5772 48.7539 57.4906 48.1837C57.4126 47.6135 57.3173 47.0696 57.2046 46.5521C57.1007 46.0257 56.9924 45.5608 56.8797 45.1573C56.7671 44.7537 56.6502 44.4335 56.5289 44.1967C56.4162 43.9511 56.3123 43.8282 56.217 43.8282C56.0697 43.8282 55.8877 43.8458 55.6711 43.8809C55.4632 43.916 55.186 43.9598 54.8394 44.0125ZM59.8428 43.8019C59.5915 43.8019 59.4659 43.8897 59.4659 44.0651C59.4659 44.109 59.4789 44.1835 59.5049 44.2888C59.5309 44.3941 59.5699 44.5607 59.6219 44.7888C59.6998 45.1573 59.7735 45.552 59.8428 45.9731C59.9121 46.3942 59.9814 46.8679 60.0507 47.3942C60.12 47.9118 60.185 48.4952 60.2457 49.1443C60.315 49.7847 60.3843 50.5084 60.4536 51.3155C60.4623 51.4471 60.5792 51.5743 60.8045 51.6971C61.0298 51.8111 61.3287 51.9164 61.7012 52.0129C62.0737 52.1006 62.4983 52.1752 62.9748 52.2366C63.46 52.2892 63.9581 52.3155 64.4693 52.3155C65.1451 52.3155 65.7906 52.2366 66.4057 52.0787C67.0295 51.912 67.5753 51.6927 68.0432 51.4208C68.5197 51.1488 68.8966 50.833 69.1738 50.4733C69.4597 50.1137 69.6027 49.7408 69.6027 49.3549C69.6027 48.7145 69.3514 48.0916 68.8489 47.4863C68.3551 46.881 67.6706 46.3328 66.7956 45.8415C65.9205 45.3415 64.8895 44.916 63.7026 44.5651C62.5156 44.2055 61.229 43.9511 59.8428 43.8019Z" fill="#34717B"/>
<path d="M84.5219 51.1839C84.7731 50.9646 85.0201 50.8549 85.2626 50.8549C85.4013 50.8549 85.5269 50.89 85.6395 50.9602C85.7522 51.0304 85.8778 51.14 86.0164 51.2892C86.1464 51.4909 86.2373 51.6576 86.2893 51.7892C86.35 51.912 86.3803 52.0348 86.3803 52.1576C86.3803 52.4208 86.2503 52.6708 85.9904 52.9077C85.5745 53.2586 85.124 53.5744 84.6388 53.8551C84.1537 54.127 83.6468 54.3595 83.1183 54.5525C82.5898 54.7455 82.044 54.8902 81.4809 54.9867C80.9177 55.092 80.3589 55.1446 79.8044 55.1446C79.1026 55.1446 78.4442 55.0525 77.829 54.8683C77.2139 54.6929 76.6637 54.4385 76.1786 54.1051C75.702 53.7718 75.2992 53.3726 74.9699 52.9077C74.6407 52.434 74.4068 51.9032 74.2682 51.3155C74.1902 51.0699 74.1165 50.912 74.0472 50.8418C73.9866 50.7628 73.8826 50.7234 73.7353 50.7234C73.4148 50.7234 73.1679 50.6444 72.9946 50.4865C72.8213 50.3286 72.7347 50.1005 72.7347 49.8022C72.7347 49.6794 72.7433 49.6005 72.7607 49.5654L72.7866 49.3022C72.83 48.9864 72.9123 48.7583 73.0336 48.618C73.1635 48.4776 73.3628 48.4074 73.6314 48.4074H73.8263C74.1902 48.4074 74.4458 48.2364 74.5931 47.8943C74.8616 47.289 75.2039 46.7363 75.6197 46.2363C76.0356 45.7362 76.5034 45.3108 77.0233 44.9599C77.5431 44.6002 78.0976 44.3239 78.6868 44.1309C79.2846 43.9291 79.891 43.8282 80.5062 43.8282C81.1473 43.8282 81.7451 43.9247 82.2996 44.1177C82.8627 44.302 83.3522 44.5607 83.7681 44.8941C84.184 45.2274 84.5089 45.6178 84.7428 46.0652C84.9854 46.5126 85.1067 46.9951 85.1067 47.5127C85.1067 47.8723 85.0374 48.2013 84.8988 48.4995C84.7601 48.7978 84.5609 49.061 84.3009 49.2891C84.041 49.5084 83.7248 49.6882 83.3522 49.8286C82.9884 49.9689 82.5725 50.061 82.1047 50.1049L77.5951 50.5654C77.4218 50.5654 77.2789 50.6093 77.1662 50.697C77.0623 50.7848 77.0103 50.9032 77.0103 51.0523C77.0103 51.2804 77.0926 51.4997 77.2572 51.7102C77.4305 51.9208 77.6557 52.1094 77.933 52.2761C78.2189 52.434 78.5438 52.5612 78.9077 52.6577C79.2802 52.7542 79.6614 52.8024 80.0513 52.8024C80.4239 52.8024 80.8051 52.7673 81.1949 52.6971C81.5935 52.6182 81.9834 52.5085 82.3646 52.3682C82.7544 52.2278 83.1313 52.0611 83.4952 51.8681C83.8591 51.6664 84.2013 51.4383 84.5219 51.1839ZM81.6238 47.789C81.7538 47.7627 81.8664 47.7013 81.9617 47.6048C82.057 47.4995 82.1047 47.3723 82.1047 47.2232C82.1047 47.0916 82.057 46.9688 81.9617 46.8547C81.8664 46.7407 81.7364 46.6398 81.5718 46.5521C81.4072 46.4556 81.2166 46.381 81 46.3284C80.7834 46.2757 80.5538 46.2494 80.3112 46.2494C79.956 46.2494 79.5921 46.3021 79.2196 46.4073C78.847 46.5126 78.5091 46.653 78.2059 46.8284C77.9027 46.9951 77.6557 47.1837 77.4651 47.3942C77.2745 47.596 77.1792 47.7978 77.1792 47.9995C77.1792 48.2013 77.3005 48.3022 77.5431 48.3022C77.6904 48.3022 77.9287 48.2846 78.2579 48.2495C78.5871 48.2144 78.951 48.175 79.3495 48.1311C79.7481 48.0785 80.1509 48.0215 80.5582 47.96C80.9654 47.8986 81.3206 47.8416 81.6238 47.789Z" fill="#34717B"/>
<path d="M87.4329 43.4466C87.4329 43.3151 87.4893 43.1879 87.6019 43.065C87.7145 42.9335 87.8618 42.8194 88.0437 42.7229C88.2257 42.6177 88.4293 42.5343 88.6545 42.4729C88.8885 42.4027 89.1224 42.3676 89.3563 42.3676C89.4863 42.3676 89.5946 42.4027 89.6812 42.4729C89.7765 42.5431 89.8588 42.6791 89.9281 42.8808C89.9975 43.0738 90.0581 43.3502 90.1101 43.7098C90.1707 44.0607 90.227 44.5213 90.279 45.0915C90.3137 45.2669 90.344 45.4029 90.37 45.4994C90.4047 45.5871 90.448 45.631 90.5 45.631C90.5779 45.631 90.6559 45.495 90.7339 45.2231C91.3663 43.3721 92.2804 42.4466 93.476 42.4466C94.0305 42.4466 94.533 42.622 94.9835 42.9729C95.4427 43.3238 95.8672 43.8984 96.2571 44.6967C96.6556 45.4862 97.0325 46.5301 97.3877 47.8285C97.743 49.118 98.0982 50.7102 98.4534 52.605C98.4707 52.7015 98.4837 52.7892 98.4924 52.8682C98.5011 52.9472 98.5054 53.0217 98.5054 53.0919C98.5054 53.2937 98.4577 53.4691 98.3624 53.6182C98.2758 53.7586 98.1588 53.877 98.0116 53.9735C97.8643 54.0612 97.6996 54.127 97.5177 54.1709C97.3358 54.2235 97.1538 54.2499 96.9719 54.2499C96.608 54.2499 96.3438 54.2104 96.1791 54.1314C96.0232 54.0525 95.9236 53.9033 95.8802 53.684C95.629 52.3506 95.3821 51.1664 95.1395 50.1312C94.9055 49.0961 94.6716 48.2276 94.4377 47.5258C94.2124 46.8152 93.9872 46.2757 93.7619 45.9073C93.5367 45.5389 93.3114 45.3546 93.0861 45.3546C92.8609 45.3546 92.6486 45.4994 92.4493 45.7889C92.2587 46.0696 92.0725 46.5126 91.8905 47.1179C91.7086 47.7232 91.531 48.4908 91.3577 49.4207C91.1931 50.3505 91.0328 51.4602 90.8768 52.7498C90.8335 53.1007 90.6602 53.3814 90.357 53.5919C90.0538 53.8025 89.6682 53.9077 89.2004 53.9077C88.8885 53.9077 88.6502 53.8419 88.4856 53.7104C88.321 53.5788 88.23 53.3989 88.2127 53.1708C88.1347 51.3462 88.0481 49.8461 87.9528 48.6706C87.8661 47.4863 87.7838 46.5389 87.7059 45.8284C87.6279 45.109 87.5629 44.5739 87.5109 44.223C87.4589 43.8721 87.4329 43.6133 87.4329 43.4466Z" fill="#34717B"/>
<path d="M101.079 38.8675C101.079 38.4025 101.209 38.0779 101.468 37.8937C101.728 37.7007 102.157 37.6042 102.755 37.6042C102.972 37.6042 103.154 37.6262 103.301 37.67C103.457 37.7051 103.587 37.7753 103.691 37.8806C103.803 37.9858 103.89 38.1262 103.951 38.3016C104.02 38.4683 104.076 38.6832 104.12 38.9464C104.224 39.7622 104.336 40.6044 104.457 41.4729C104.587 42.3413 104.722 43.2142 104.86 44.0914C104.912 44.4862 105.116 44.6836 105.471 44.6836C105.566 44.6836 105.722 44.6748 105.939 44.6572C106.164 44.6309 106.429 44.6046 106.732 44.5783C107.035 44.5432 107.36 44.5081 107.706 44.473C108.062 44.4379 108.413 44.4072 108.759 44.3809C109.114 44.3458 109.448 44.3195 109.76 44.302C110.08 44.2756 110.362 44.2625 110.605 44.2625C110.795 44.2625 110.947 44.302 111.059 44.3809C111.172 44.4511 111.259 44.5476 111.319 44.6704C111.389 44.7844 111.432 44.916 111.449 45.0652C111.475 45.2055 111.488 45.3503 111.488 45.4994C111.488 45.631 111.462 45.7669 111.41 45.9073C111.367 46.0477 111.302 46.1749 111.215 46.2889C111.137 46.3942 111.038 46.4819 110.916 46.5521C110.795 46.6223 110.656 46.6573 110.501 46.6573C109.747 46.6573 108.984 46.6837 108.213 46.7363C107.451 46.7802 106.688 46.8416 105.926 46.9205C105.536 46.9732 105.341 47.1705 105.341 47.5127C105.341 47.539 105.346 47.5741 105.354 47.6179C105.363 47.653 105.367 47.6837 105.367 47.71C105.471 48.4732 105.566 49.1882 105.653 49.8549C105.748 50.5216 105.826 51.1181 105.887 51.6445C105.956 52.162 106.008 52.5963 106.043 52.9472C106.086 53.2893 106.108 53.5174 106.108 53.6314C106.108 53.9472 106.078 54.2104 106.017 54.4209C105.956 54.6402 105.857 54.8157 105.718 54.9473C105.579 55.0876 105.393 55.1841 105.159 55.2367C104.934 55.2982 104.648 55.3289 104.302 55.3289C103.972 55.3289 103.73 55.2499 103.574 55.092C103.418 54.9341 103.331 54.6929 103.314 54.3683C103.262 53.3331 103.18 52.2936 103.067 51.2497C102.954 50.197 102.824 49.1487 102.677 48.1048C102.599 47.7276 102.404 47.539 102.092 47.539C102.066 47.539 102.036 47.5434 102.001 47.5521C101.967 47.5609 101.936 47.5653 101.91 47.5653C101.373 47.6881 100.866 47.8109 100.39 47.9337C99.9133 48.0565 99.4671 48.1881 99.0512 48.3285C98.8173 48.4074 98.6094 48.4645 98.4274 48.4995C98.2455 48.5259 98.0809 48.539 97.9336 48.539C97.7343 48.539 97.587 48.4513 97.4917 48.2759C97.3964 48.0916 97.3488 47.8635 97.3488 47.5916C97.3488 47.4951 97.3574 47.3855 97.3748 47.2626C97.3921 47.1311 97.4267 47.0039 97.4787 46.881C97.522 46.7495 97.5913 46.631 97.6867 46.5258C97.7733 46.4117 97.8946 46.3196 98.0505 46.2494C98.4144 46.1003 98.8996 45.9468 99.5061 45.7889C100.113 45.6222 100.797 45.4687 101.559 45.3283C101.733 45.2845 101.867 45.2143 101.962 45.1178C102.066 45.0125 102.118 44.859 102.118 44.6572C102.118 44.6134 102.118 44.5695 102.118 44.5257C102.118 44.473 102.11 44.4204 102.092 44.3677C101.954 43.5607 101.819 42.8282 101.689 42.1703C101.568 41.5036 101.46 40.9334 101.364 40.4596C101.278 39.9859 101.209 39.6131 101.157 39.3412C101.105 39.0692 101.079 38.9113 101.079 38.8675Z" fill="#34717B"/>
<path d="M113.97 42.644C114.551 42.644 115.149 42.7229 115.764 42.8808C116.379 43.03 116.942 43.2273 117.453 43.473C117.964 43.7098 118.385 43.9774 118.714 44.2756C119.043 44.5739 119.208 44.8634 119.208 45.1441C119.208 45.2845 119.147 45.4424 119.026 45.6178C118.905 45.7845 118.757 45.9468 118.584 46.1047C118.411 46.2538 118.22 46.381 118.012 46.4863C117.813 46.5828 117.635 46.631 117.479 46.631C117.271 46.631 117.037 46.5433 116.778 46.3679C116.526 46.1924 116.245 45.9994 115.933 45.7889C115.63 45.5696 115.296 45.3722 114.932 45.1967C114.568 45.0213 114.174 44.9336 113.749 44.9336C113.472 44.9336 113.243 45.0037 113.061 45.1441C112.887 45.2757 112.801 45.4643 112.801 45.7099C112.801 45.9292 112.905 46.1529 113.113 46.381C113.321 46.6003 113.594 46.8284 113.931 47.0653C114.278 47.3021 114.668 47.5521 115.101 47.8153C115.534 48.0785 115.976 48.3592 116.427 48.6575C116.886 48.9557 117.332 49.2803 117.765 49.6312C118.198 49.9821 118.584 50.3637 118.922 50.776C119.268 51.1883 119.546 51.6401 119.754 52.1313C119.962 52.6138 120.065 53.1401 120.065 53.7104C120.065 54.2016 119.979 54.649 119.806 55.0525C119.632 55.4561 119.385 55.8026 119.065 56.0921C118.744 56.3815 118.363 56.6052 117.921 56.7631C117.479 56.921 116.994 57 116.466 57C115.799 57 115.183 56.8947 114.62 56.6842C114.057 56.4824 113.572 56.2017 113.165 55.842C112.757 55.4824 112.437 55.0525 112.203 54.5525C111.978 54.0525 111.865 53.5042 111.865 52.9077C111.865 52.1357 111.999 51.5743 112.268 51.2234C112.545 50.8725 112.978 50.697 113.568 50.697C113.931 50.697 114.222 50.7672 114.438 50.9076C114.655 51.0479 114.763 51.219 114.763 51.4208C114.763 51.526 114.746 51.6357 114.711 51.7497C114.677 51.855 114.638 51.969 114.594 52.0918C114.56 52.2059 114.525 52.3287 114.49 52.4603C114.464 52.5919 114.451 52.7235 114.451 52.855C114.451 53.0831 114.503 53.3024 114.607 53.513C114.711 53.7235 114.85 53.9077 115.023 54.0656C115.205 54.2323 115.413 54.3639 115.647 54.4604C115.881 54.5569 116.128 54.6051 116.388 54.6051C117.081 54.6051 117.427 54.3156 117.427 53.7367C117.427 53.2805 117.25 52.8507 116.894 52.4471C116.539 52.0348 116.093 51.6357 115.556 51.2497C115.019 50.8549 114.438 50.4602 113.814 50.0654C113.199 49.6707 112.623 49.2584 112.086 48.8285C111.549 48.3987 111.103 47.9425 110.747 47.46C110.392 46.9688 110.215 46.438 110.215 45.8678C110.215 45.3941 110.31 44.9599 110.501 44.5651C110.7 44.1704 110.968 43.8326 111.306 43.5519C111.644 43.2624 112.038 43.0387 112.489 42.8808C112.948 42.7229 113.442 42.644 113.97 42.644Z" fill="#34717B"/>
<path d="M17.4904 13.5007C17.2391 13.5446 17.0139 13.5928 16.8146 13.6455C16.6153 13.7069 16.3684 13.7376 16.0738 13.7376C15.7533 13.7376 15.5064 13.6455 15.3331 13.4612C15.1598 13.277 15.0732 13.0709 15.0732 12.8428C15.0732 12.6586 15.1035 12.4217 15.1641 12.1322C15.2248 11.834 15.2551 11.5357 15.2551 11.2374C15.1945 10.1058 15.1122 8.98732 15.0082 7.882C14.9129 6.7679 14.8176 5.75031 14.7223 4.8292C14.627 3.9081 14.5447 3.12297 14.4754 2.47382C14.406 1.81589 14.3714 1.36849 14.3714 1.13164C14.3714 0.973736 14.4104 0.828992 14.4884 0.697406C14.5663 0.557047 14.6746 0.434234 14.8132 0.328965C14.9519 0.223696 15.1122 0.144745 15.2941 0.0921102C15.4847 0.0307034 15.684 0 15.8919 0C16.2991 0 16.598 0.065793 16.7886 0.197379C16.9792 0.320192 17.0962 0.521958 17.1395 0.802674C17.3821 2.68874 17.5554 4.42129 17.6593 6.00032C17.772 7.57058 17.8499 9.04434 17.8933 10.4216C17.8933 10.6234 17.9452 10.7769 18.0492 10.8822C18.1618 10.9874 18.3048 11.0401 18.4781 11.0401C18.8246 11.0401 19.1755 11.0225 19.5307 10.9874C19.886 10.9436 20.2412 10.8997 20.5964 10.8558C20.9516 10.812 21.3025 10.7725 21.6491 10.7374C22.0043 10.6936 22.3465 10.6716 22.6757 10.6716C22.8923 10.6716 23.0656 10.6979 23.1956 10.7506C23.3342 10.8032 23.4381 10.8734 23.5075 10.9611C23.5854 11.0488 23.6331 11.1497 23.6504 11.2638C23.6764 11.369 23.6894 11.4743 23.6894 11.5796C23.6894 11.7462 23.6721 11.9129 23.6374 12.0796C23.6028 12.2463 23.5421 12.3998 23.4555 12.5401C23.3688 12.6717 23.2519 12.7814 23.1046 12.8691C22.9573 12.9656 22.771 13.0226 22.5458 13.0402C21.4801 13.1454 20.5054 13.2244 19.6217 13.277C18.7467 13.3297 18.0362 13.4042 17.4904 13.5007Z" fill="#34717B"/>
<path d="M34.9308 9.7242C35.182 9.50489 35.429 9.39524 35.6716 9.39524C35.8102 9.39524 35.9358 9.43033 36.0484 9.50051C36.1611 9.57069 36.2867 9.68034 36.4253 9.82947C36.5553 10.0312 36.6462 10.1979 36.6982 10.3295C36.7589 10.4523 36.7892 10.5751 36.7892 10.6979C36.7892 10.9611 36.6592 11.2111 36.3993 11.448C35.9835 11.7989 35.5329 12.1147 35.0478 12.3954C34.5626 12.6673 34.0557 12.8998 33.5272 13.0928C32.9987 13.2858 32.4529 13.4305 31.8898 13.527C31.3266 13.6323 30.7678 13.6849 30.2133 13.6849C29.5115 13.6849 28.8531 13.5928 28.2379 13.4086C27.6228 13.2332 27.0726 12.9788 26.5875 12.6454C26.111 12.3121 25.7081 11.9129 25.3789 11.448C25.0496 10.9743 24.8157 10.4435 24.6771 9.85579C24.5991 9.61016 24.5255 9.45226 24.4562 9.38208C24.3955 9.30313 24.2915 9.26365 24.1443 9.26365C23.8237 9.26365 23.5768 9.1847 23.4035 9.0268C23.2302 8.86889 23.1436 8.64081 23.1436 8.34255C23.1436 8.21974 23.1522 8.14078 23.1696 8.10569L23.1956 7.84252C23.2389 7.52672 23.3212 7.29863 23.4425 7.15828C23.5724 7.01792 23.7717 6.94774 24.0403 6.94774H24.2352C24.5991 6.94774 24.8547 6.77668 25.002 6.43455C25.2706 5.82926 25.6128 5.2766 26.0286 4.77657C26.4445 4.27654 26.9124 3.85108 27.4322 3.50019C27.952 3.14052 28.5065 2.86419 29.0957 2.6712C29.6935 2.46943 30.2999 2.36855 30.9151 2.36855C31.5562 2.36855 32.154 2.46504 32.7085 2.65804C33.2717 2.84226 33.7612 3.10104 34.177 3.43439C34.5929 3.76774 34.9178 4.15812 35.1517 4.60551C35.3943 5.0529 35.5156 5.53538 35.5156 6.05295C35.5156 6.41262 35.4463 6.74159 35.3077 7.03985C35.169 7.33811 34.9698 7.60128 34.7099 7.82936C34.4499 8.04867 34.1337 8.22851 33.7612 8.36887C33.3973 8.50922 32.9814 8.60134 32.5136 8.6452L28.004 9.10575C27.8307 9.10575 27.6878 9.14961 27.5752 9.23733C27.4712 9.32506 27.4192 9.44349 27.4192 9.59262C27.4192 9.8207 27.5015 10.04 27.6661 10.2505C27.8394 10.4611 28.0647 10.6497 28.3419 10.8164C28.6278 10.9743 28.9527 11.1015 29.3166 11.198C29.6891 11.2945 30.0704 11.3427 30.4602 11.3427C30.8328 11.3427 31.214 11.3076 31.6039 11.2374C32.0024 11.1585 32.3923 11.0488 32.7735 10.9085C33.1634 10.7681 33.5402 10.6014 33.9041 10.4084C34.268 10.2067 34.6102 9.9786 34.9308 9.7242ZM32.0327 6.32928C32.1627 6.30297 32.2753 6.24156 32.3706 6.14506C32.4659 6.0398 32.5136 5.9126 32.5136 5.76346C32.5136 5.63188 32.4659 5.50907 32.3706 5.39502C32.2753 5.28098 32.1454 5.1801 31.9807 5.09238C31.8161 4.99588 31.6255 4.92131 31.4089 4.86868C31.1923 4.81605 30.9627 4.78973 30.7201 4.78973C30.3649 4.78973 30.001 4.84236 29.6285 4.94763C29.2559 5.0529 28.9181 5.19326 28.6148 5.36871C28.3116 5.53538 28.0647 5.72399 27.8741 5.93453C27.6835 6.13629 27.5881 6.33806 27.5881 6.53982C27.5881 6.74159 27.7094 6.84247 27.952 6.84247C28.0993 6.84247 28.3376 6.82492 28.6668 6.78984C28.996 6.75475 29.3599 6.71527 29.7585 6.67141C30.157 6.61877 30.5599 6.56175 30.9671 6.50035C31.3743 6.43894 31.7295 6.38192 32.0327 6.32928Z" fill="#34717B"/>
</svg>
